# xmcd
#
# Track frame offsets: 
#        150
#        31997
#        51622
#        121561
#        138518
#        178683
#        208304
#        225598
#
# Disc length: 3298 seconds
#
# Revision: 0
# Processed by: cddbd v1.5.1PL0 Copyright (c) Steve Scherf et al.
# Submitted via: ExactAudioCopy v0.95b2
#
DISCID=700ce008
DTITLE=Boz Scaggs - The Fillmore
DYEAR=1900
DGENRE=Blues
TTITLE0=01. Look What You've Done to Me
TTITLE1=02. Driving Wheel
TTITLE2=03. Loan Me a Dime
TTITLE3=04. T-Bone Shuffle
TTITLE4=05. I've Got Your Love
TTITLE5=06. Breakdown Dead Ahead
TTITLE6=07. Don't Cry No More
TTITLE7=08. Lido Shuffle
EXTD=
EXTT0=
EXTT1=
EXTT2=
EXTT3=
EXTT4=
EXTT5=
EXTT6=
EXTT7=
PLAYORDER=
